<?xml version="1.0" standalone="no"?>
<!DOCTYPE svg PUBLIC "-//W3C//DTD SVG 20010904//EN"
 "http://www.w3.org/TR/2001/REC-SVG-20010904/DTD/svg10.dtd">
<svg version="1.0" xmlns="http://www.w3.org/2000/svg"
viewBox="0 0 1024 1024"
fill="currentColor">

<g transform="translate(0.000000,1024.000000) scale(0.100000,-0.100000)"
fill="#000000" stroke="none">
<path d="M4790 7510 l-1625 -5 -54 -23 c-158 -67 -255 -174 -306 -335 l-25
-78 0 -1602 c0 -1390 2 -1610 15 -1660 40 -154 146 -279 302 -356 125 -62 109
-62 1183 -59 l975 3 -185 97 -185 98 -772 0 c-534 0 -788 3 -825 11 -117 25
-210 95 -260 197 l-33 67 0 1610 0 1610 27 50 c32 62 103 129 166 158 l47 22
1640 0 1640 0 47 -22 c66 -30 143 -105 175 -172 l28 -56 5 -519 5 -519 83 -28
c46 -16 92 -31 103 -34 20 -7 20 -1 17 562 -4 558 -4 569 -26 627 -80 213
-257 348 -472 358 -36 2 -796 1 -1690 -2z"/>
<path d="M3516 6959 c-42 -39 -76 -76 -76 -83 0 -7 95 -106 210 -221 l211
-209 -208 -208 -208 -208 65 -67 c76 -78 93 -93 102 -90 13 4 579 569 576 576
-6 12 -583 581 -590 581 -3 0 -40 -32 -82 -71z"/>
<path d="M4150 5975 l0 -105 370 0 370 0 0 105 0 105 -370 0 -370 0 0 -105z"/>
<path d="M6045 5984 c-332 -103 -915 -282 -1090 -335 -221 -67 -244 -76 -251
-103 -3 -13 38 -281 90 -597 52 -316 118 -713 145 -884 28 -170 55 -333 61
-362 13 -62 -53 -22 620 -376 566 -297 625 -327 643 -327 7 0 161 81 342 181
182 100 411 225 510 279 337 184 323 175 333 217 9 37 21 119 117 858 109 838
125 962 131 996 12 70 11 71 -551 249 -280 89 -586 186 -678 216 -92 30 -178
54 -190 54 -12 -1 -116 -30 -232 -66z m599 -263 c204 -66 472 -152 595 -191
l224 -72 -7 -71 c-4 -40 -22 -189 -41 -332 -19 -143 -62 -474 -95 -735 -33
-261 -63 -492 -67 -513 -5 -31 -13 -42 -47 -61 -22 -13 -225 -124 -451 -246
-225 -123 -427 -234 -447 -247 -21 -12 -41 -23 -46 -23 -4 0 -102 50 -218 111
-115 61 -349 183 -521 270 -277 142 -312 163 -317 187 -3 15 -19 110 -35 212
-17 102 -55 338 -85 525 -31 187 -76 462 -100 610 -24 149 -41 273 -38 276 4
3 192 63 417 133 226 70 520 162 655 205 135 44 247 79 249 80 2 1 171 -53
375 -118z"/>
<path d="M6234 5563 c-20 -43 -84 -190 -144 -328 -59 -137 -162 -374 -228
-525 -284 -653 -372 -857 -372 -868 0 -17 274 -17 287 1 5 6 19 35 30 62 12
28 48 115 82 195 l61 145 337 -2 338 -1 67 -164 c37 -89 77 -182 88 -205 l20
-43 146 0 c143 0 145 0 139 21 -11 35 -724 1637 -771 1732 -15 31 -32 57 -37
57 -4 0 -24 -35 -43 -77z m56 -532 c0 -5 49 -125 109 -267 l109 -259 -222 -5
c-121 -3 -224 -4 -227 -3 -4 2 27 83 68 180 41 98 91 220 111 270 32 81 52
113 52 84z"/>
</g>
</svg>
